<?xml version="1.0" encoding="UTF-8" standalone="no"?><svg xmlns="http://www.w3.org/2000/svg" xmlns:xlink="http://www.w3.org/1999/xlink" contentScriptType="application/ecmascript" contentStyleType="text/css" height="949px" preserveAspectRatio="none" style="width:1152px;height:949px;" version="1.1" viewBox="0 0 1152 949" width="1152px" zoomAndPan="magnify"><defs><filter height="300%" id="f1h8q1ydzmrv5c" width="300%" x="-1" y="-1"><feGaussianBlur result="blurOut" stdDeviation="2.0"/><feColorMatrix in="blurOut" result="blurOut2" type="matrix" values="0 0 0 0 0 0 0 0 0 0 0 0 0 0 0 0 0 0 .4 0"/><feOffset dx="4.0" dy="4.0" in="blurOut2" result="blurOut3"/><feBlend in="SourceGraphic" in2="blurOut3" mode="normal"/></filter></defs><g><!--MD5=[79d378210367c0c6ec62ef762ddfbd1b]
class Project--><rect fill="#FEFECE" filter="url(#f1h8q1ydzmrv5c)" height="86.4141" id="Project" style="stroke: #A80036; stroke-width: 1.5;" width="139" x="350.464" y="8"/><ellipse cx="393.814" cy="24" fill="#ADD1B2" rx="11" ry="11" style="stroke: #A80036; stroke-width: 1.0;"/><path d="M396.1578,19.6719 C395.2203,19.2344 394.6265,19.0938 393.7515,19.0938 C391.1265,19.0938 389.1265,21.1719 389.1265,23.8906 L389.1265,25.0156 C389.1265,27.5938 391.2359,29.4844 394.1265,29.4844 C395.3453,29.4844 396.5015,29.1875 397.2515,28.6406 C397.8296,28.2344 398.1578,27.7813 398.1578,27.3906 C398.1578,26.9375 397.7671,26.5469 397.2984,26.5469 C397.0796,26.5469 396.8765,26.625 396.689,26.8125 C396.2359,27.2969 396.2359,27.2969 396.0484,27.3906 C395.6265,27.6563 394.939,27.7813 394.1734,27.7813 C392.1265,27.7813 390.8296,26.6875 390.8296,24.9844 L390.8296,23.8906 C390.8296,22.1094 392.0796,20.7969 393.814,20.7969 C394.3921,20.7969 395.0015,20.9531 395.4703,21.2031 C395.9546,21.4844 396.1265,21.7031 396.2203,22.1094 C396.2828,22.5156 396.314,22.6406 396.4546,22.7656 C396.5953,22.9063 396.8296,23.0156 397.0484,23.0156 C397.314,23.0156 397.5796,22.875 397.7515,22.6563 C397.8609,22.5 397.8921,22.3125 397.8921,21.8906 L397.8921,20.4688 C397.8921,20.0313 397.8765,19.9063 397.7828,19.75 C397.6265,19.4844 397.3453,19.3438 397.0484,19.3438 C396.7515,19.3438 396.5484,19.4375 396.3296,19.75 L396.1578,19.6719 Z "/><text fill="#000000" font-family="sans-serif" font-size="12" lengthAdjust="spacingAndGlyphs" textLength="44" x="414.114" y="28.1543">Project</text><line style="stroke: #A80036; stroke-width: 1.5;" x1="351.464" x2="488.464" y1="40" y2="40"/><text fill="#000000" font-family="sans-serif" font-size="11" lengthAdjust="spacingAndGlyphs" textLength="55" x="356.464" y="54.2104">Integer:id</text><text fill="#000000" font-family="sans-serif" font-size="11" lengthAdjust="spacingAndGlyphs" textLength="70" x="356.464" y="67.0151">String:name</text><line style="stroke: #A80036; stroke-width: 1.5;" x1="351.464" x2="488.464" y1="73.6094" y2="73.6094"/><text fill="#000000" font-family="sans-serif" font-size="11" lengthAdjust="spacingAndGlyphs" textLength="127" x="356.464" y="87.8198">Project: get_projects()</text><!--MD5=[40c11204a4518c6d61672544ec53d0c5]
class WorkItem--><rect fill="#FEFECE" filter="url(#f1h8q1ydzmrv5c)" height="278.4844" id="WorkItem" style="stroke: #A80036; stroke-width: 1.5;" width="483" x="207.464" y="523"/><ellipse cx="415.214" cy="539" fill="#ADD1B2" rx="11" ry="11" style="stroke: #A80036; stroke-width: 1.0;"/><path d="M417.5578,534.6719 C416.6203,534.2344 416.0265,534.0938 415.1515,534.0938 C412.5265,534.0938 410.5265,536.1719 410.5265,538.8906 L410.5265,540.0156 C410.5265,542.5938 412.6359,544.4844 415.5265,544.4844 C416.7453,544.4844 417.9015,544.1875 418.6515,543.6406 C419.2296,543.2344 419.5578,542.7813 419.5578,542.3906 C419.5578,541.9375 419.1671,541.5469 418.6984,541.5469 C418.4796,541.5469 418.2765,541.625 418.089,541.8125 C417.6359,542.2969 417.6359,542.2969 417.4484,542.3906 C417.0265,542.6563 416.339,542.7813 415.5734,542.7813 C413.5265,542.7813 412.2296,541.6875 412.2296,539.9844 L412.2296,538.8906 C412.2296,537.1094 413.4796,535.7969 415.214,535.7969 C415.7921,535.7969 416.4015,535.9531 416.8703,536.2031 C417.3546,536.4844 417.5265,536.7031 417.6203,537.1094 C417.6828,537.5156 417.714,537.6406 417.8546,537.7656 C417.9953,537.9063 418.2296,538.0156 418.4484,538.0156 C418.714,538.0156 418.9796,537.875 419.1515,537.6563 C419.2609,537.5 419.2921,537.3125 419.2921,536.8906 L419.2921,535.4688 C419.2921,535.0313 419.2765,534.9063 419.1828,534.75 C419.0265,534.4844 418.7453,534.3438 418.4484,534.3438 C418.1515,534.3438 417.9484,534.4375 417.7296,534.75 L417.5578,534.6719 Z "/><text fill="#000000" font-family="sans-serif" font-size="12" lengthAdjust="spacingAndGlyphs" textLength="59" x="435.714" y="543.1543">WorkItem</text><line style="stroke: #A80036; stroke-width: 1.5;" x1="208.464" x2="689.464" y1="555" y2="555"/><text fill="#000000" font-family="sans-serif" font-size="11" lengthAdjust="spacingAndGlyphs" textLength="55" x="213.464" y="569.2104">Integer:id</text><text fill="#000000" font-family="sans-serif" font-size="11" lengthAdjust="spacingAndGlyphs" textLength="70" x="213.464" y="582.0151">String:name</text><text fill="#000000" font-family="sans-serif" font-size="11" lengthAdjust="spacingAndGlyphs" textLength="101" x="213.464" y="594.8198">String:description</text><text fill="#000000" font-family="sans-serif" font-size="11" lengthAdjust="spacingAndGlyphs" textLength="66" x="213.464" y="607.6245">Integer:risk</text><text fill="#000000" font-family="sans-serif" font-size="11" lengthAdjust="spacingAndGlyphs" textLength="101" x="213.464" y="620.4292">String:story_point</text><text fill="#000000" font-family="sans-serif" font-size="11" lengthAdjust="spacingAndGlyphs" textLength="86" x="213.464" y="633.2339">Integer:priority</text><text fill="#000000" font-family="sans-serif" font-size="11" lengthAdjust="spacingAndGlyphs" textLength="108" x="213.464" y="646.0386">Date:created_date</text><text fill="#000000" font-family="sans-serif" font-size="11" lengthAdjust="spacingAndGlyphs" textLength="116" x="213.464" y="658.8433">Date:activated_date</text><text fill="#000000" font-family="sans-serif" font-size="11" lengthAdjust="spacingAndGlyphs" textLength="115" x="213.464" y="671.6479">Date:resolved_date</text><text fill="#000000" font-family="sans-serif" font-size="11" lengthAdjust="spacingAndGlyphs" textLength="101" x="213.464" y="684.4526">Date:closed_date</text><line style="stroke: #A80036; stroke-width: 1.5;" x1="208.464" x2="689.464" y1="691.0469" y2="691.0469"/><text fill="#000000" font-family="sans-serif" font-size="11" lengthAdjust="spacingAndGlyphs" textLength="228" x="213.464" y="705.2573">WorkItem: get_work_items(project_id1 )</text><text fill="#000000" font-family="sans-serif" font-size="11" lengthAdjust="spacingAndGlyphs" textLength="310" x="213.464" y="718.062">WorkItem: get_work_item(work_item_id1, project_id2 )</text><text fill="#000000" font-family="sans-serif" font-size="11" lengthAdjust="spacingAndGlyphs" textLength="388" x="213.464" y="730.8667">WorkItem: get_work_item(work_item_id1, fields2, as_of3, expand4 )</text><text fill="#000000" font-family="sans-serif" font-size="11" lengthAdjust="spacingAndGlyphs" textLength="194" x="213.464" y="743.6714">WorkItem: get_relation(relation1 )</text><text fill="#000000" font-family="sans-serif" font-size="11" lengthAdjust="spacingAndGlyphs" textLength="362" x="213.464" y="756.4761">WorkItem: get_backlog_work_items(project1, team2, backlog3 )</text><text fill="#000000" font-family="sans-serif" font-size="11" lengthAdjust="spacingAndGlyphs" textLength="471" x="213.464" y="769.2808">WorkItem: get_work_item_query_by_wiql_epic_user_story_product_backlog_item()</text><text fill="#000000" font-family="sans-serif" font-size="11" lengthAdjust="spacingAndGlyphs" textLength="272" x="213.464" y="782.0854">WorkItem: get_work_item_query_by_wiql_task()</text><text fill="#000000" font-family="sans-serif" font-size="11" lengthAdjust="spacingAndGlyphs" textLength="242" x="213.464" y="794.8901">WorkItem: get_work_item_query_by_wiql()</text><!--MD5=[dfb0845b8492ffe07b1ce50e003034d7]
class Team--><rect fill="#FEFECE" filter="url(#f1h8q1ydzmrv5c)" height="86.4141" id="Team" style="stroke: #A80036; stroke-width: 1.5;" width="186" x="326.964" y="171"/><ellipse cx="398.714" cy="187" fill="#ADD1B2" rx="11" ry="11" style="stroke: #A80036; stroke-width: 1.0;"/><path d="M401.0578,182.6719 C400.1203,182.2344 399.5265,182.0938 398.6515,182.0938 C396.0265,182.0938 394.0265,184.1719 394.0265,186.8906 L394.0265,188.0156 C394.0265,190.5938 396.1359,192.4844 399.0265,192.4844 C400.2453,192.4844 401.4015,192.1875 402.1515,191.6406 C402.7296,191.2344 403.0578,190.7813 403.0578,190.3906 C403.0578,189.9375 402.6671,189.5469 402.1984,189.5469 C401.9796,189.5469 401.7765,189.625 401.589,189.8125 C401.1359,190.2969 401.1359,190.2969 400.9484,190.3906 C400.5265,190.6563 399.839,190.7813 399.0734,190.7813 C397.0265,190.7813 395.7296,189.6875 395.7296,187.9844 L395.7296,186.8906 C395.7296,185.1094 396.9796,183.7969 398.714,183.7969 C399.2921,183.7969 399.9015,183.9531 400.3703,184.2031 C400.8546,184.4844 401.0265,184.7031 401.1203,185.1094 C401.1828,185.5156 401.214,185.6406 401.3546,185.7656 C401.4953,185.9063 401.7296,186.0156 401.9484,186.0156 C402.214,186.0156 402.4796,185.875 402.6515,185.6563 C402.7609,185.5 402.7921,185.3125 402.7921,184.8906 L402.7921,183.4688 C402.7921,183.0313 402.7765,182.9063 402.6828,182.75 C402.5265,182.4844 402.2453,182.3438 401.9484,182.3438 C401.6515,182.3438 401.4484,182.4375 401.2296,182.75 L401.0578,182.6719 Z "/><text fill="#000000" font-family="sans-serif" font-size="12" lengthAdjust="spacingAndGlyphs" textLength="34" x="419.214" y="191.1543">Team</text><line style="stroke: #A80036; stroke-width: 1.5;" x1="327.964" x2="511.964" y1="203" y2="203"/><text fill="#000000" font-family="sans-serif" font-size="11" lengthAdjust="spacingAndGlyphs" textLength="55" x="332.964" y="217.2104">Integer:id</text><text fill="#000000" font-family="sans-serif" font-size="11" lengthAdjust="spacingAndGlyphs" textLength="70" x="332.964" y="230.0151">String:name</text><line style="stroke: #A80036; stroke-width: 1.5;" x1="327.964" x2="511.964" y1="236.6094" y2="236.6094"/><text fill="#000000" font-family="sans-serif" font-size="11" lengthAdjust="spacingAndGlyphs" textLength="174" x="332.964" y="250.8198">team: get_teams(project_id1 )</text><!--MD5=[8e99fe642d6b0197bff658f760a93d49]
class Interaction--><rect fill="#FEFECE" filter="url(#f1h8q1ydzmrv5c)" height="112.0234" id="Interaction" style="stroke: #A80036; stroke-width: 1.5;" width="276" x="44.9645" y="334"/><ellipse cx="145.7145" cy="350" fill="#ADD1B2" rx="11" ry="11" style="stroke: #A80036; stroke-width: 1.0;"/><path d="M148.0583,345.6719 C147.1208,345.2344 146.527,345.0938 145.652,345.0938 C143.027,345.0938 141.027,347.1719 141.027,349.8906 L141.027,351.0156 C141.027,353.5938 143.1364,355.4844 146.027,355.4844 C147.2458,355.4844 148.402,355.1875 149.152,354.6406 C149.7301,354.2344 150.0583,353.7813 150.0583,353.3906 C150.0583,352.9375 149.6676,352.5469 149.1989,352.5469 C148.9801,352.5469 148.777,352.625 148.5895,352.8125 C148.1364,353.2969 148.1364,353.2969 147.9489,353.3906 C147.527,353.6563 146.8395,353.7813 146.0739,353.7813 C144.027,353.7813 142.7301,352.6875 142.7301,350.9844 L142.7301,349.8906 C142.7301,348.1094 143.9801,346.7969 145.7145,346.7969 C146.2926,346.7969 146.902,346.9531 147.3708,347.2031 C147.8551,347.4844 148.027,347.7031 148.1208,348.1094 C148.1833,348.5156 148.2145,348.6406 148.3551,348.7656 C148.4958,348.9063 148.7301,349.0156 148.9489,349.0156 C149.2145,349.0156 149.4801,348.875 149.652,348.6563 C149.7614,348.5 149.7926,348.3125 149.7926,347.8906 L149.7926,346.4688 C149.7926,346.0313 149.777,345.9063 149.6833,345.75 C149.527,345.4844 149.2458,345.3438 148.9489,345.3438 C148.652,345.3438 148.4489,345.4375 148.2301,345.75 L148.0583,345.6719 Z "/><text fill="#000000" font-family="sans-serif" font-size="12" lengthAdjust="spacingAndGlyphs" textLength="66" x="166.2145" y="354.1543">Interaction</text><line style="stroke: #A80036; stroke-width: 1.5;" x1="45.9645" x2="319.9645" y1="366" y2="366"/><text fill="#000000" font-family="sans-serif" font-size="11" lengthAdjust="spacingAndGlyphs" textLength="55" x="50.9645" y="380.2104">Integer:id</text><text fill="#000000" font-family="sans-serif" font-size="11" lengthAdjust="spacingAndGlyphs" textLength="70" x="50.9645" y="393.0151">String:name</text><text fill="#000000" font-family="sans-serif" font-size="11" lengthAdjust="spacingAndGlyphs" textLength="90" x="50.9645" y="405.8198">Date:start_date</text><text fill="#000000" font-family="sans-serif" font-size="11" lengthAdjust="spacingAndGlyphs" textLength="84" x="50.9645" y="418.6245">Date:end_data</text><line style="stroke: #A80036; stroke-width: 1.5;" x1="45.9645" x2="319.9645" y1="425.2188" y2="425.2188"/><text fill="#000000" font-family="sans-serif" font-size="11" lengthAdjust="spacingAndGlyphs" textLength="264" x="50.9645" y="439.4292">Interaction: get_interactions(project1, team2 )</text><!--MD5=[11459ce625948f24790fc33ca606a2a1]
class Backlog--><rect fill="#FEFECE" filter="url(#f1h8q1ydzmrv5c)" height="86.4141" id="Backlog" style="stroke: #A80036; stroke-width: 1.5;" width="234" x="907.964" y="347"/><ellipse cx="996.214" cy="363" fill="#ADD1B2" rx="11" ry="11" style="stroke: #A80036; stroke-width: 1.0;"/><path d="M998.5578,358.6719 C997.6203,358.2344 997.0265,358.0938 996.1515,358.0938 C993.5265,358.0938 991.5265,360.1719 991.5265,362.8906 L991.5265,364.0156 C991.5265,366.5938 993.6359,368.4844 996.5265,368.4844 C997.7453,368.4844 998.9015,368.1875 999.6515,367.6406 C1000.2296,367.2344 1000.5578,366.7813 1000.5578,366.3906 C1000.5578,365.9375 1000.1671,365.5469 999.6984,365.5469 C999.4796,365.5469 999.2765,365.625 999.089,365.8125 C998.6359,366.2969 998.6359,366.2969 998.4484,366.3906 C998.0265,366.6563 997.339,366.7813 996.5734,366.7813 C994.5265,366.7813 993.2296,365.6875 993.2296,363.9844 L993.2296,362.8906 C993.2296,361.1094 994.4796,359.7969 996.214,359.7969 C996.7921,359.7969 997.4015,359.9531 997.8703,360.2031 C998.3546,360.4844 998.5265,360.7031 998.6203,361.1094 C998.6828,361.5156 998.714,361.6406 998.8546,361.7656 C998.9953,361.9063 999.2296,362.0156 999.4484,362.0156 C999.714,362.0156 999.9796,361.875 1000.1515,361.6563 C1000.2609,361.5 1000.2921,361.3125 1000.2921,360.8906 L1000.2921,359.4688 C1000.2921,359.0313 1000.2765,358.9063 1000.1828,358.75 C1000.0265,358.4844 999.7453,358.3438 999.4484,358.3438 C999.1515,358.3438 998.9484,358.4375 998.7296,358.75 L998.5578,358.6719 Z "/><text fill="#000000" font-family="sans-serif" font-size="12" lengthAdjust="spacingAndGlyphs" textLength="49" x="1016.714" y="367.1543">Backlog</text><line style="stroke: #A80036; stroke-width: 1.5;" x1="908.964" x2="1140.964" y1="379" y2="379"/><text fill="#000000" font-family="sans-serif" font-size="11" lengthAdjust="spacingAndGlyphs" textLength="55" x="913.964" y="393.2104">Integer:id</text><text fill="#000000" font-family="sans-serif" font-size="11" lengthAdjust="spacingAndGlyphs" textLength="70" x="913.964" y="406.0151">String:name</text><line style="stroke: #A80036; stroke-width: 1.5;" x1="908.964" x2="1140.964" y1="412.6094" y2="412.6094"/><text fill="#000000" font-family="sans-serif" font-size="11" lengthAdjust="spacingAndGlyphs" textLength="222" x="913.964" y="426.8198">Backlog: get_backlog(project1, team2 )</text><!--MD5=[bf49f0003ac6f1193da16321c5244cc7]
class TeamMember--><rect fill="#FEFECE" filter="url(#f1h8q1ydzmrv5c)" height="99.2188" id="TeamMember" style="stroke: #A80036; stroke-width: 1.5;" width="353" x="519.464" y="340.5"/><ellipse cx="649.714" cy="356.5" fill="#ADD1B2" rx="11" ry="11" style="stroke: #A80036; stroke-width: 1.0;"/><path d="M652.0578,352.1719 C651.1203,351.7344 650.5265,351.5938 649.6515,351.5938 C647.0265,351.5938 645.0265,353.6719 645.0265,356.3906 L645.0265,357.5156 C645.0265,360.0938 647.1359,361.9844 650.0265,361.9844 C651.2453,361.9844 652.4015,361.6875 653.1515,361.1406 C653.7296,360.7344 654.0578,360.2813 654.0578,359.8906 C654.0578,359.4375 653.6671,359.0469 653.1984,359.0469 C652.9796,359.0469 652.7765,359.125 652.589,359.3125 C652.1359,359.7969 652.1359,359.7969 651.9484,359.8906 C651.5265,360.1563 650.839,360.2813 650.0734,360.2813 C648.0265,360.2813 646.7296,359.1875 646.7296,357.4844 L646.7296,356.3906 C646.7296,354.6094 647.9796,353.2969 649.714,353.2969 C650.2921,353.2969 650.9015,353.4531 651.3703,353.7031 C651.8546,353.9844 652.0265,354.2031 652.1203,354.6094 C652.1828,355.0156 652.214,355.1406 652.3546,355.2656 C652.4953,355.4063 652.7296,355.5156 652.9484,355.5156 C653.214,355.5156 653.4796,355.375 653.6515,355.1563 C653.7609,355 653.7921,354.8125 653.7921,354.3906 L653.7921,352.9688 C653.7921,352.5313 653.7765,352.4063 653.6828,352.25 C653.5265,351.9844 653.2453,351.8438 652.9484,351.8438 C652.6515,351.8438 652.4484,351.9375 652.2296,352.25 L652.0578,352.1719 Z "/><text fill="#000000" font-family="sans-serif" font-size="12" lengthAdjust="spacingAndGlyphs" textLength="84" x="670.214" y="360.6543">TeamMember</text><line style="stroke: #A80036; stroke-width: 1.5;" x1="520.464" x2="871.464" y1="372.5" y2="372.5"/><text fill="#000000" font-family="sans-serif" font-size="11" lengthAdjust="spacingAndGlyphs" textLength="55" x="525.464" y="386.7104">Integer:id</text><text fill="#000000" font-family="sans-serif" font-size="11" lengthAdjust="spacingAndGlyphs" textLength="85" x="525.464" y="399.5151">Boolean:admin</text><line style="stroke: #A80036; stroke-width: 1.5;" x1="520.464" x2="871.464" y1="406.1094" y2="406.1094"/><text fill="#000000" font-family="sans-serif" font-size="11" lengthAdjust="spacingAndGlyphs" textLength="341" x="525.464" y="420.3198">TeamMember: get_team_members(project_id1, team_id2 )</text><text fill="#000000" font-family="sans-serif" font-size="11" lengthAdjust="spacingAndGlyphs" textLength="279" x="525.464" y="433.1245">TeamMember: get_all_team_members_project()</text><!--MD5=[d89522dc17e4c35c83a603e675ef016b]
class Identity--><rect fill="#FEFECE" filter="url(#f1h8q1ydzmrv5c)" height="73.6094" id="Identity" style="stroke: #A80036; stroke-width: 1.5;" width="82" x="856.964" y="625"/><ellipse cx="873.764" cy="641" fill="#ADD1B2" rx="11" ry="11" style="stroke: #A80036; stroke-width: 1.0;"/><path d="M876.1078,636.6719 C875.1703,636.2344 874.5765,636.0938 873.7015,636.0938 C871.0765,636.0938 869.0765,638.1719 869.0765,640.8906 L869.0765,642.0156 C869.0765,644.5938 871.1859,646.4844 874.0765,646.4844 C875.2953,646.4844 876.4515,646.1875 877.2015,645.6406 C877.7796,645.2344 878.1078,644.7813 878.1078,644.3906 C878.1078,643.9375 877.7171,643.5469 877.2484,643.5469 C877.0296,643.5469 876.8265,643.625 876.639,643.8125 C876.1859,644.2969 876.1859,644.2969 875.9984,644.3906 C875.5765,644.6563 874.889,644.7813 874.1234,644.7813 C872.0765,644.7813 870.7796,643.6875 870.7796,641.9844 L870.7796,640.8906 C870.7796,639.1094 872.0296,637.7969 873.764,637.7969 C874.3421,637.7969 874.9515,637.9531 875.4203,638.2031 C875.9046,638.4844 876.0765,638.7031 876.1703,639.1094 C876.2328,639.5156 876.264,639.6406 876.4046,639.7656 C876.5453,639.9063 876.7796,640.0156 876.9984,640.0156 C877.264,640.0156 877.5296,639.875 877.7015,639.6563 C877.8109,639.5 877.8421,639.3125 877.8421,638.8906 L877.8421,637.4688 C877.8421,637.0313 877.8265,636.9063 877.7328,636.75 C877.5765,636.4844 877.2953,636.3438 876.9984,636.3438 C876.7015,636.3438 876.4984,636.4375 876.2796,636.75 L876.1078,636.6719 Z "/><text fill="#000000" font-family="sans-serif" font-size="12" lengthAdjust="spacingAndGlyphs" textLength="46" x="888.164" y="645.1543">Identity</text><line style="stroke: #A80036; stroke-width: 1.5;" x1="857.964" x2="937.964" y1="657" y2="657"/><text fill="#000000" font-family="sans-serif" font-size="11" lengthAdjust="spacingAndGlyphs" textLength="55" x="862.964" y="671.2104">Integer:id</text><text fill="#000000" font-family="sans-serif" font-size="11" lengthAdjust="spacingAndGlyphs" textLength="70" x="862.964" y="684.0151">String:name</text><line style="stroke: #A80036; stroke-width: 1.5;" x1="857.964" x2="937.964" y1="690.6094" y2="690.6094"/><!--MD5=[9b5824efa89ec32415892f4d278a7347]
class WorkItemType--><rect fill="#FEFECE" filter="url(#f1h8q1ydzmrv5c)" height="60.8047" id="WorkItemType" style="stroke: #A80036; stroke-width: 1.5;" width="121" x="320.464" y="878"/><ellipse cx="335.464" cy="894" fill="#ADD1B2" rx="11" ry="11" style="stroke: #A80036; stroke-width: 1.0;"/><path d="M337.8078,889.6719 C336.8703,889.2344 336.2765,889.0938 335.4015,889.0938 C332.7765,889.0938 330.7765,891.1719 330.7765,893.8906 L330.7765,895.0156 C330.7765,897.5938 332.8859,899.4844 335.7765,899.4844 C336.9953,899.4844 338.1515,899.1875 338.9015,898.6406 C339.4796,898.2344 339.8078,897.7813 339.8078,897.3906 C339.8078,896.9375 339.4171,896.5469 338.9484,896.5469 C338.7296,896.5469 338.5265,896.625 338.339,896.8125 C337.8859,897.2969 337.8859,897.2969 337.6984,897.3906 C337.2765,897.6563 336.589,897.7813 335.8234,897.7813 C333.7765,897.7813 332.4796,896.6875 332.4796,894.9844 L332.4796,893.8906 C332.4796,892.1094 333.7296,890.7969 335.464,890.7969 C336.0421,890.7969 336.6515,890.9531 337.1203,891.2031 C337.6046,891.4844 337.7765,891.7031 337.8703,892.1094 C337.9328,892.5156 337.964,892.6406 338.1046,892.7656 C338.2453,892.9063 338.4796,893.0156 338.6984,893.0156 C338.964,893.0156 339.2296,892.875 339.4015,892.6563 C339.5109,892.5 339.5421,892.3125 339.5421,891.8906 L339.5421,890.4688 C339.5421,890.0313 339.5265,889.9063 339.4328,889.75 C339.2765,889.4844 338.9953,889.3438 338.6984,889.3438 C338.4015,889.3438 338.1984,889.4375 337.9796,889.75 L337.8078,889.6719 Z "/><text fill="#000000" font-family="sans-serif" font-size="12" lengthAdjust="spacingAndGlyphs" textLength="89" x="349.464" y="898.1543">WorkItemType</text><line style="stroke: #A80036; stroke-width: 1.5;" x1="321.464" x2="440.464" y1="910" y2="910"/><text fill="#000000" font-family="sans-serif" font-size="11" lengthAdjust="spacingAndGlyphs" textLength="69" x="326.464" y="924.2104">String:value</text><line style="stroke: #A80036; stroke-width: 1.5;" x1="321.464" x2="440.464" y1="930.8047" y2="930.8047"/><!--MD5=[e3d83ec5fd90ea9f3f2bfe265cb53458]
class Status--><rect fill="#FEFECE" filter="url(#f1h8q1ydzmrv5c)" height="60.8047" id="Status" style="stroke: #A80036; stroke-width: 1.5;" width="81" x="476.464" y="878"/><ellipse cx="495.514" cy="894" fill="#ADD1B2" rx="11" ry="11" style="stroke: #A80036; stroke-width: 1.0;"/><path d="M497.8578,889.6719 C496.9203,889.2344 496.3265,889.0938 495.4515,889.0938 C492.8265,889.0938 490.8265,891.1719 490.8265,893.8906 L490.8265,895.0156 C490.8265,897.5938 492.9359,899.4844 495.8265,899.4844 C497.0453,899.4844 498.2015,899.1875 498.9515,898.6406 C499.5296,898.2344 499.8578,897.7813 499.8578,897.3906 C499.8578,896.9375 499.4671,896.5469 498.9984,896.5469 C498.7796,896.5469 498.5765,896.625 498.389,896.8125 C497.9359,897.2969 497.9359,897.2969 497.7484,897.3906 C497.3265,897.6563 496.639,897.7813 495.8734,897.7813 C493.8265,897.7813 492.5296,896.6875 492.5296,894.9844 L492.5296,893.8906 C492.5296,892.1094 493.7796,890.7969 495.514,890.7969 C496.0921,890.7969 496.7015,890.9531 497.1703,891.2031 C497.6546,891.4844 497.8265,891.7031 497.9203,892.1094 C497.9828,892.5156 498.014,892.6406 498.1546,892.7656 C498.2953,892.9063 498.5296,893.0156 498.7484,893.0156 C499.014,893.0156 499.2796,892.875 499.4515,892.6563 C499.5609,892.5 499.5921,892.3125 499.5921,891.8906 L499.5921,890.4688 C499.5921,890.0313 499.5765,889.9063 499.4828,889.75 C499.3265,889.4844 499.0453,889.3438 498.7484,889.3438 C498.4515,889.3438 498.2484,889.4375 498.0296,889.75 L497.8578,889.6719 Z "/><text fill="#000000" font-family="sans-serif" font-size="12" lengthAdjust="spacingAndGlyphs" textLength="40" x="510.414" y="898.1543">Status</text><line style="stroke: #A80036; stroke-width: 1.5;" x1="477.464" x2="556.464" y1="910" y2="910"/><text fill="#000000" font-family="sans-serif" font-size="11" lengthAdjust="spacingAndGlyphs" textLength="69" x="482.464" y="924.2104">String:value</text><line style="stroke: #A80036; stroke-width: 1.5;" x1="477.464" x2="556.464" y1="930.8047" y2="930.8047"/><!--MD5=[8590b4c15e7761308482a49c23175460]
link Project to WorkItem--><path d="M350.33,79.613 C212.762,138.436 -72.2956,284.029 26.9645,446 C67.9409,512.865 136.959,559.749 207.436,592.26 " fill="none" id="Project-WorkItem" style="stroke: #A80036; stroke-width: 1.0;"/><text fill="#000000" font-family="sans-serif" font-size="13" lengthAdjust="spacingAndGlyphs" textLength="80" x="39.9645" y="300.0669">materializes</text><polygon fill="#000000" points="75.4645,309.1328,78.4645,315.1328,81.4645,309.1328,75.4645,309.1328" style="stroke: #000000; stroke-width: 1.0;"/><text fill="#000000" font-family="sans-serif" font-size="13" lengthAdjust="spacingAndGlyphs" textLength="8" x="334.2763" y="78.9737">1</text><text fill="#000000" font-family="sans-serif" font-size="13" lengthAdjust="spacingAndGlyphs" textLength="21" x="178.1663" y="586.7867">0..*</text><!--MD5=[2c2661bb5f9a4f14a73c0c7f83665498]
link Project to Team--><path d="M419.964,94.301 C419.964,117.965 419.964,147.363 419.964,170.982 " fill="none" id="Project-Team" style="stroke: #A80036; stroke-width: 1.0;"/><text fill="#000000" font-family="sans-serif" font-size="13" lengthAdjust="spacingAndGlyphs" textLength="42" x="420.964" y="137.0669">teams</text><polygon fill="#000000" points="437.464,146.1328,440.464,152.1328,443.464,146.1328,437.464,146.1328" style="stroke: #000000; stroke-width: 1.0;"/><text fill="#000000" font-family="sans-serif" font-size="13" lengthAdjust="spacingAndGlyphs" textLength="8" x="411.3265" y="114.4419">1</text><text fill="#000000" font-family="sans-serif" font-size="13" lengthAdjust="spacingAndGlyphs" textLength="21" x="397.2906" y="159.9752">0..*</text><!--MD5=[d372feedb11ac9642ccd02201e0a2f8c]
link Project to Interaction--><path d="M352.972,94.101 C324.683,114.535 293.214,141.133 270.964,171 C234.268,220.259 210.304,286.945 196.785,333.542 " fill="none" id="Project-Interaction" style="stroke: #A80036; stroke-width: 1.0;"/><text fill="#000000" font-family="sans-serif" font-size="13" lengthAdjust="spacingAndGlyphs" textLength="23" x="271.964" y="218.5669">has</text><polygon fill="#000000" points="278.964,227.6328,281.964,233.6328,284.964,227.6328,278.964,227.6328" style="stroke: #000000; stroke-width: 1.0;"/><text fill="#000000" font-family="sans-serif" font-size="13" lengthAdjust="spacingAndGlyphs" textLength="8" x="334.545" y="113.5793">1</text><text fill="#000000" font-family="sans-serif" font-size="13" lengthAdjust="spacingAndGlyphs" textLength="21" x="176.1897" y="322.8207">0..*</text><!--MD5=[6b0b080259e87750f6a974fbeb3252cc]
link Project to Backlog--><path d="M489.661,90.823 C604.158,154.601 831.133,281.031 949.368,346.891 " fill="none" id="Project-Backlog" style="stroke: #A80036; stroke-width: 1.0;"/><text fill="#000000" font-family="sans-serif" font-size="13" lengthAdjust="spacingAndGlyphs" textLength="49" x="783.964" y="218.5669">backlog</text><polygon fill="#000000" points="835.964,212.5664,841.964,215.5664,835.964,218.5664,835.964,212.5664" style="stroke: #000000; stroke-width: 1.0;"/><text fill="#000000" font-family="sans-serif" font-size="13" lengthAdjust="spacingAndGlyphs" textLength="8" x="497.261" y="91.2087">1</text><text fill="#000000" font-family="sans-serif" font-size="13" lengthAdjust="spacingAndGlyphs" textLength="21" x="914.6465" y="335.8697">0..*</text><!--MD5=[0ebf185e4bb252598a4663a6f1f430f9]
reverse link Project to Backlog--><path d="M509.458,59.816 C602.528,71.553 749.15,100.494 854.964,171 C922.664,216.109 975.24,297.052 1003.042,346.603 " fill="none" id="Project&lt;-Backlog" style="stroke: #A80036; stroke-width: 1.0;"/><polygon fill="none" points="508.628,66.766,489.587,57.468,510.27,52.863,508.628,66.766" style="stroke: #A80036; stroke-width: 1.0;"/><!--MD5=[fa67e5571bf7222f8c6397a9ac54823d]
link Team to TeamMember--><path d="M467.603,257.135 C486.38,272.768 508.549,290.069 529.964,304 C549.641,316.8 571.487,329.168 592.695,340.321 " fill="none" id="Team-TeamMember" style="stroke: #A80036; stroke-width: 1.0;"/><text fill="#000000" font-family="sans-serif" font-size="13" lengthAdjust="spacingAndGlyphs" textLength="91" x="530.964" y="300.0669">composed_by</text><polygon fill="#000000" points="624.964,294.0664,630.964,297.0664,624.964,300.0664,624.964,294.0664" style="stroke: #000000; stroke-width: 1.0;"/><text fill="#000000" font-family="sans-serif" font-size="13" lengthAdjust="spacingAndGlyphs" textLength="8" x="466.8307" y="277.565">1</text><text fill="#000000" font-family="sans-serif" font-size="13" lengthAdjust="spacingAndGlyphs" textLength="21" x="555.6962" y="329.3411">0..*</text><!--MD5=[3876dd03792fad95e0dc1a221c240cc9]
link Team to Interaction--><path d="M346.02,257.083 C330.811,266.471 315.126,276.708 300.964,287 C281.359,301.248 261.04,318.001 242.902,333.765 " fill="none" id="Team-Interaction" style="stroke: #A80036; stroke-width: 1.0;"/><polygon fill="#000000" points="308.964,294.0664,302.964,297.0664,308.964,300.0664,308.964,294.0664" style="stroke: #000000; stroke-width: 1.0;"/><text fill="#000000" font-family="sans-serif" font-size="13" lengthAdjust="spacingAndGlyphs" textLength="49" x="314.964" y="300.0669">work_in</text><text fill="#000000" font-family="sans-serif" font-size="13" lengthAdjust="spacingAndGlyphs" textLength="8" x="325.1105" y="277.5044">1</text><text fill="#000000" font-family="sans-serif" font-size="13" lengthAdjust="spacingAndGlyphs" textLength="21" x="227.9272" y="323.0709">0..*</text><!--MD5=[5c17359ca73a633491678284b0c1551e]
link Team to WorkItem--><path d="M415.123,257.066 C412.747,279.809 410.145,308.404 408.964,334 C406.671,383.725 404.393,396.433 408.964,446 C411.266,470.952 415.039,497.329 419.373,522.737 " fill="none" id="Team-WorkItem" style="stroke: #A80036; stroke-width: 1.0;"/><text fill="#000000" font-family="sans-serif" font-size="13" lengthAdjust="spacingAndGlyphs" textLength="78" x="409.964" y="394.5669">implements</text><polygon fill="#000000" points="444.464,403.6328,447.464,409.6328,450.464,403.6328,444.464,403.6328" style="stroke: #000000; stroke-width: 1.0;"/><text fill="#000000" font-family="sans-serif" font-size="13" lengthAdjust="spacingAndGlyphs" textLength="8" x="405.6587" y="277.4846">1</text><text fill="#000000" font-family="sans-serif" font-size="13" lengthAdjust="spacingAndGlyphs" textLength="21" x="396.1805" y="511.7682">0..*</text><!--MD5=[4777b7e1be89619860131463157d2690]
link Team to Backlog--><path d="M513.173,245.244 C552.359,258.026 598.411,273.137 639.964,287 C662.23,294.428 667.156,298.459 689.964,304 C777.307,325.218 803.287,310.209 889.964,334 C903.021,337.584 916.517,342.072 929.697,346.93 " fill="none" id="Team-Backlog" style="stroke: #A80036; stroke-width: 1.0;"/><text fill="#000000" font-family="sans-serif" font-size="13" lengthAdjust="spacingAndGlyphs" textLength="49" x="690.964" y="300.0669">backlog</text><polygon fill="#000000" points="742.964,294.0664,748.964,297.0664,742.964,300.0664,742.964,294.0664" style="stroke: #000000; stroke-width: 1.0;"/><text fill="#000000" font-family="sans-serif" font-size="13" lengthAdjust="spacingAndGlyphs" textLength="8" x="520.9193" y="244.1918">1</text><text fill="#000000" font-family="sans-serif" font-size="13" lengthAdjust="spacingAndGlyphs" textLength="21" x="891.8404" y="335.9149">0..*</text><!--MD5=[693f458d4f2dd3931e7c4fc489318a52]
link Interaction to WorkItem--><path d="M229.381,446.107 C242.83,461.545 257.731,478.158 271.964,493 C281.348,502.785 291.152,512.749 301.123,522.694 " fill="none" id="Interaction-WorkItem" style="stroke: #A80036; stroke-width: 1.0;"/><text fill="#000000" font-family="sans-serif" font-size="13" lengthAdjust="spacingAndGlyphs" textLength="78" x="272.964" y="489.0669">implements</text><polygon fill="#000000" points="307.464,498.1328,310.464,504.1328,313.464,498.1328,307.464,498.1328" style="stroke: #000000; stroke-width: 1.0;"/><text fill="#000000" font-family="sans-serif" font-size="13" lengthAdjust="spacingAndGlyphs" textLength="8" x="226.5505" y="465.9327">1</text><text fill="#000000" font-family="sans-serif" font-size="13" lengthAdjust="spacingAndGlyphs" textLength="21" x="271.4637" y="511.7228">0..*</text><!--MD5=[ec230d3291fd138da8f92ccd7427967e]
link TeamMember to Identity--><path d="M819.2,439.504 C834.288,449.684 848.163,461.761 858.964,476 C891.993,519.542 898.556,584.702 899.108,624.941 " fill="none" id="TeamMember-Identity" style="stroke: #A80036; stroke-width: 1.0;"/><text fill="#000000" font-family="sans-serif" font-size="13" lengthAdjust="spacingAndGlyphs" textLength="59" x="871.964" y="489.0669">refers_to</text><polygon fill="#000000" points="896.964,498.1328,899.964,504.1328,902.964,498.1328,896.964,498.1328" style="stroke: #000000; stroke-width: 1.0;"/><text fill="#000000" font-family="sans-serif" font-size="13" lengthAdjust="spacingAndGlyphs" textLength="8" x="828.7128" y="459.937">1</text><text fill="#000000" font-family="sans-serif" font-size="13" lengthAdjust="spacingAndGlyphs" textLength="8" x="890.5814" y="613.8406">1</text><!--MD5=[1076ac45b830e129740c463fc9708788]
link TeamMember to WorkItem--><path d="M621.177,439.645 C606.449,450.757 591.646,463.117 578.964,476 C564.92,490.267 551.312,506.192 538.524,522.548 " fill="none" id="TeamMember-WorkItem" style="stroke: #A80036; stroke-width: 1.0;"/><text fill="#000000" font-family="sans-serif" font-size="13" lengthAdjust="spacingAndGlyphs" textLength="50" x="579.964" y="489.0669">creates</text><polygon fill="#000000" points="600.464,498.1328,603.464,504.1328,606.464,498.1328,600.464,498.1328" style="stroke: #000000; stroke-width: 1.0;"/><text fill="#000000" font-family="sans-serif" font-size="13" lengthAdjust="spacingAndGlyphs" textLength="8" x="602.0976" y="459.7419">1</text><text fill="#000000" font-family="sans-serif" font-size="13" lengthAdjust="spacingAndGlyphs" textLength="21" x="521.6005" y="512.0286">0..*</text><!--MD5=[1076ac45b830e129740c463fc9708788]
link TeamMember to WorkItem--><path d="M678.177,439.617 C670.408,457.376 660.24,477.011 647.964,493 C640.117,503.221 631.551,513.249 622.523,522.999 " fill="none" id="TeamMember-WorkItem-1" style="stroke: #A80036; stroke-width: 1.0;"/><text fill="#000000" font-family="sans-serif" font-size="13" lengthAdjust="spacingAndGlyphs" textLength="60" x="659.964" y="489.0669">activates</text><polygon fill="#000000" points="685.464,498.1328,688.464,504.1328,691.464,498.1328,685.464,498.1328" style="stroke: #000000; stroke-width: 1.0;"/><text fill="#000000" font-family="sans-serif" font-size="13" lengthAdjust="spacingAndGlyphs" textLength="8" x="667.1132" y="459.7099">1</text><text fill="#000000" font-family="sans-serif" font-size="13" lengthAdjust="spacingAndGlyphs" textLength="21" x="610.4403" y="512.0445">0..*</text><!--MD5=[1076ac45b830e129740c463fc9708788]
link TeamMember to WorkItem--><path d="M737.239,439.742 C746.814,456.95 751.702,476.191 741.964,493 C728.664,515.958 710.911,536.05 690.695,553.57 " fill="none" id="TeamMember-WorkItem-2" style="stroke: #A80036; stroke-width: 1.0;"/><text fill="#000000" font-family="sans-serif" font-size="13" lengthAdjust="spacingAndGlyphs" textLength="41" x="748.964" y="489.0669">closes</text><polygon fill="#000000" points="764.964,498.1328,767.964,504.1328,770.964,498.1328,764.964,498.1328" style="stroke: #000000; stroke-width: 1.0;"/><text fill="#000000" font-family="sans-serif" font-size="13" lengthAdjust="spacingAndGlyphs" textLength="8" x="734.4808" y="459.8525">1</text><text fill="#000000" font-family="sans-serif" font-size="13" lengthAdjust="spacingAndGlyphs" textLength="21" x="698.1831" y="547.19">0..*</text><!--MD5=[1076ac45b830e129740c463fc9708788]
link TeamMember to WorkItem--><path d="M519.321,431.71 C498.784,443.033 480.148,457.505 465.964,476 C455.464,489.693 448.61,505.742 444.336,522.565 " fill="none" id="TeamMember-WorkItem-3" style="stroke: #A80036; stroke-width: 1.0;"/><text fill="#000000" font-family="sans-serif" font-size="13" lengthAdjust="spacingAndGlyphs" textLength="78" x="466.964" y="489.0669">assigned_to</text><polygon fill="#000000" points="501.464,498.1328,504.464,504.1328,507.464,498.1328,501.464,498.1328" style="stroke: #000000; stroke-width: 1.0;"/><text fill="#000000" font-family="sans-serif" font-size="13" lengthAdjust="spacingAndGlyphs" textLength="8" x="503.7001" y="430.2183">1</text><text fill="#000000" font-family="sans-serif" font-size="13" lengthAdjust="spacingAndGlyphs" textLength="21" x="422.556" y="512.0465">0..*</text><!--MD5=[94169fc2a32cecb4ea4d4729e0c68b87]
link WorkItem to WorkItem--><path d="M690.705,636.011 C712.073,641.478 725.464,650.141 725.464,662 C725.464,673.859 712.073,682.522 690.705,687.989 " fill="none" id="WorkItem-WorkItem" style="stroke: #A80036; stroke-width: 1.0;"/><polygon fill="#000000" points="733.464,660.5664,727.464,663.5664,733.464,666.5664,733.464,660.5664" style="stroke: #000000; stroke-width: 1.0;"/><text fill="#000000" font-family="sans-serif" font-size="13" lengthAdjust="spacingAndGlyphs" textLength="67" x="744.464" y="666.5669">related_to</text><text fill="#000000" font-family="sans-serif" font-size="13" lengthAdjust="spacingAndGlyphs" textLength="8" x="698.7684" y="631.9733">1</text><text fill="#000000" font-family="sans-serif" font-size="13" lengthAdjust="spacingAndGlyphs" textLength="21" x="698.1934" y="685.5996">0..*</text><!--MD5=[74cd80b762d8c896808185506c5ab5be]
link WorkItem to WorkItemType--><path d="M410.494,801.325 C402.44,830.283 394.727,858.0161 389.204,877.8725 " fill="none" id="WorkItem-WorkItemType" style="stroke: #A80036; stroke-width: 1.0;"/><text fill="#000000" font-family="sans-serif" font-size="13" lengthAdjust="spacingAndGlyphs" textLength="23" x="402.964" y="844.0669">has</text><polygon fill="#000000" points="409.964,853.1328,412.964,859.1328,415.964,853.1328,409.964,853.1328" style="stroke: #000000; stroke-width: 1.0;"/><text fill="#000000" font-family="sans-serif" font-size="13" lengthAdjust="spacingAndGlyphs" textLength="8" x="400.1714" y="821.4118">1</text><text fill="#000000" font-family="sans-serif" font-size="13" lengthAdjust="spacingAndGlyphs" textLength="8" x="382.0785" y="867.1094">1</text><!--MD5=[ea1b132746cf34467f0db53b85f77a0b]
link WorkItem to Status--><path d="M487.435,801.325 C495.489,830.283 503.202,858.0161 508.725,877.8725 " fill="none" id="WorkItem-Status" style="stroke: #A80036; stroke-width: 1.0;"/><text fill="#000000" font-family="sans-serif" font-size="13" lengthAdjust="spacingAndGlyphs" textLength="42" x="499.964" y="844.0669">Status</text><polygon fill="#000000" points="516.464,853.1328,519.464,859.1328,522.464,853.1328,516.464,853.1328" style="stroke: #000000; stroke-width: 1.0;"/><text fill="#000000" font-family="sans-serif" font-size="13" lengthAdjust="spacingAndGlyphs" textLength="8" x="481.3201" y="821.4118">1</text><text fill="#000000" font-family="sans-serif" font-size="13" lengthAdjust="spacingAndGlyphs" textLength="8" x="498.2007" y="867.1094">1</text><!--MD5=[63e573af786d55089f2ecb53eb723a4d]
@startuml
class Project{
	Integer:id
	String:name
	Project: get_projects()
}

Project "1" - - "0..*" WorkItem : materializes >
Project "1" - - "0..*" Team : teams >
Project "1" - - "0..*" Interaction : has >
Project "1" - - "0..*" Backlog : backlog >

class Backlog{
	Integer:id
	String:name
	Backlog: get_backlog(project1, team2 )
}
Project <|- - Backlog


class Team{
	Integer:id
	String:name
	team: get_teams(project_id1 )
}

Team "1" - - "0..*" TeamMember : composed_by >
Team "1" - - "0..*" Interaction : work_in >
Team "1" - - "0..*" WorkItem : implements >
Team "1" - - "0..*" Backlog : backlog >

class Interaction{
	Integer:id
	String:name
	Date:start_date
	Date:end_data
	Interaction: get_interactions(project1, team2 )
}

Interaction "1" - - "0..*" WorkItem : implements >

class TeamMember{
	Integer:id
	Boolean:admin
	TeamMember: get_team_members(project_id1, team_id2 )
	TeamMember: get_all_team_members_project()
}

TeamMember "1" - - "1" Identity : refers_to >
TeamMember "1" - - "0..*" WorkItem : creates >
TeamMember "1" - - "0..*" WorkItem : activates >
TeamMember "1" - - "0..*" WorkItem : closes >
TeamMember "1" - - "0..*" WorkItem : assigned_to >

class Identity{
	Integer:id
	String:name
}


class WorkItem{
	Integer:id
	String:name
	String:description
	Integer:risk
	String:story_point
	Integer:priority
	Date:created_date
	Date:activated_date
	Date:resolved_date
	Date:closed_date
	WorkItem: get_work_items(project_id1 )
	WorkItem: get_work_item(work_item_id1, project_id2 )
	WorkItem: get_work_item(work_item_id1, fields2, as_of3, expand4 )
	WorkItem: get_relation(relation1 )
	WorkItem: get_backlog_work_items(project1, team2, backlog3 )
	WorkItem: get_work_item_query_by_wiql_epic_user_story_product_backlog_item()
	WorkItem: get_work_item_query_by_wiql_task()
	WorkItem: get_work_item_query_by_wiql()
}

WorkItem "1" - - "0..*" WorkItem : related_to >
WorkItem "1" - - "1" WorkItemType : has >
WorkItem "1" - - "1" Status : Status >

class WorkItemType{
	String:value
}


class Status{
	String:value
}
@enduml

PlantUML version 1.2020.09beta15(Unknown compile time)
(GPL source distribution)
Java Runtime: Java(TM) SE Runtime Environment
JVM: Java HotSpot(TM) 64-Bit Server VM
Java Version: 14.0.1+7
Operating System: Linux
Default Encoding: UTF-8
Language: en
Country: US
--></g></svg>